<?xml version="1.0" encoding="UTF-8"?>
<svg version="1.1" xmlns="http://www.w3.org/2000/svg" width="484" height="152">
<path d="M0 0 C0.73329529 0.3418634 1.46659058 0.68372681 2.22210693 1.03594971 C4.54467658 2.12112365 6.85849451 3.2235161 9.171875 4.328125 C12.21579121 5.76676306 15.26325948 7.19768539 18.3125 8.625 C19.41277527 9.1421759 19.41277527 9.1421759 20.53527832 9.6697998 C26.13663075 12.27787174 31.79895762 14.5559568 37.60449219 16.67675781 C39.921875 17.578125 39.921875 17.578125 40.921875 18.578125 C41.05327934 21.52708291 41.11184263 24.44071166 41.109375 27.390625 C41.10929443 28.27613037 41.10921387 29.16163574 41.10913086 30.07397461 C40.9206565 52.58178049 40.9206565 52.58178049 37.921875 61.578125 C34.24074792 60.94841483 31.01340111 59.92330707 27.5625 58.50390625 C26.02384277 57.87742187 26.02384277 57.87742187 24.45410156 57.23828125 C23.3709668 56.79355469 22.28783203 56.34882812 21.171875 55.890625 C12.26735995 52.27615093 3.3421959 48.8446774 -5.75 45.734375 C-8.56416322 44.75668449 -11.32451437 43.71320114 -14.078125 42.578125 C-14.078125 41.918125 -14.078125 41.258125 -14.078125 40.578125 C-4.09224263 37.24949754 8.47988061 38.44482294 18.921875 38.578125 C18.426875 34.123125 18.426875 34.123125 17.921875 29.578125 C14.46381757 28.16078422 11.00537743 26.74437953 7.546875 25.328125 C6.58136719 24.93238281 5.61585937 24.53664063 4.62109375 24.12890625 C2.67590687 23.33255458 0.72720274 22.54474236 -1.22485352 21.76538086 C-3.08425499 20.99167765 -4.92124242 20.16095793 -6.72631836 19.26782227 C-11.33653886 17.0227688 -11.33653886 17.0227688 -16.3359375 16.93603516 C-18.64267587 17.80208635 -20.72892846 18.83432794 -22.890625 20.015625 C-24.44526402 20.78788107 -26.00126783 21.55739549 -27.55859375 22.32421875 C-28.3170459 22.7094873 -29.07549805 23.09475586 -29.85693359 23.49169922 C-33.07327189 25.06486974 -36.35027857 26.32126563 -39.703125 27.578125 C-41.26933594 28.1659375 -41.26933594 28.1659375 -42.8671875 28.765625 C-43.59679687 29.03375 -44.32640625 29.301875 -45.078125 29.578125 C-37.82737986 34.0785875 -30.58607242 38.44008198 -22.890625 42.140625 C-15.05988876 45.92449755 -7.54655903 50.23873002 -0.015625 54.578125 C15.45702886 64.15542577 15.45702886 64.15542577 31.921875 71.578125 C31.36458587 74.92185975 30.57013611 77.61125499 28.921875 80.578125 C28.261875 80.578125 27.601875 80.578125 26.921875 80.578125 C26.81875 81.34125 26.715625 82.104375 26.609375 82.890625 C25.83783719 85.90663645 25.2347228 86.59568403 22.921875 88.578125 C22.179375 89.320625 21.436875 90.063125 20.671875 90.828125 C19.764375 91.735625 18.856875 92.643125 17.921875 93.578125 C17.4990625 94.08214844 17.07625 94.58617188 16.640625 95.10546875 C9.77007412 102.87138398 -3.45688981 111.65306473 -13.91015625 112.921875 C-17.98351793 112.47988261 -21.1867027 110.95199876 -24.765625 109.078125 C-25.8162915 108.5378064 -25.8162915 108.5378064 -26.88818359 107.98657227 C-35.99251591 103.1882867 -43.7204065 97.72904616 -50.078125 89.578125 C-50.738125 88.918125 -51.398125 88.258125 -52.078125 87.578125 C-52.738125 86.918125 -53.398125 86.258125 -54.078125 85.578125 C-54.078125 84.588125 -54.078125 83.598125 -54.078125 82.578125 C-54.738125 82.578125 -55.398125 82.578125 -56.078125 82.578125 C-56.95004447 81.19331172 -57.80002884 79.79467254 -58.640625 78.390625 C-59.11628906 77.61332031 -59.59195313 76.83601563 -60.08203125 76.03515625 C-61.27418297 73.09451533 -60.96667664 71.57366137 -60.078125 68.578125 C-57.38985636 68.69303412 -54.70299031 68.81975699 -52.015625 68.953125 C-51.26345703 68.9840625 -50.51128906 69.015 -49.73632812 69.046875 C-44.90351251 69.29793036 -40.61770778 69.8425758 -36.078125 71.578125 C-35.748125 72.568125 -35.418125 73.558125 -35.078125 74.578125 C-34.088125 75.073125 -34.088125 75.073125 -33.078125 75.578125 C-32.706875 76.279375 -32.335625 76.980625 -31.953125 77.703125 C-27.994943 83.77233741 -22.41228359 88.40111258 -15.38671875 90.41015625 C-11.0888658 90.72285959 -7.60791247 88.88878909 -4.078125 86.578125 C-3.0650944 85.59132765 -2.06301067 84.59301427 -1.078125 83.578125 C-2.13217529 83.0816748 -2.13217529 83.0816748 -3.20751953 82.57519531 C-18.24799359 75.46942103 -33.00703911 68.06257106 -47.54882812 59.97265625 C-54.00683337 56.41202633 -60.55259771 53.01261305 -67.078125 49.578125 C-67.078125 39.018125 -67.078125 28.458125 -67.078125 17.578125 C-55.578125 12.765625 -55.578125 12.765625 -51.74243164 11.16186523 C-45.87384868 8.68440309 -40.06314029 6.13248222 -34.32421875 3.36328125 C-33.26203125 2.85450439 -32.19984375 2.34572754 -31.10546875 1.8215332 C-29.09004133 0.84742057 -27.08295303 -0.14419563 -25.0859375 -1.15551758 C-24.16425781 -1.59919678 -23.24257813 -2.04287598 -22.29296875 -2.5 C-21.10368774 -3.09409668 -21.10368774 -3.09409668 -19.89038086 -3.70019531 C-12.78998315 -5.52229581 -6.36353848 -3.08757927 0 0 Z " fill="#C91C3D" transform="translate(67.078125,4.421875)"/>
<path d="M0 0 C0.73329529 0.3418634 1.46659058 0.68372681 2.22210693 1.03594971 C4.54467658 2.12112365 6.85849451 3.2235161 9.171875 4.328125 C12.21579121 5.76676306 15.26325948 7.19768539 18.3125 8.625 C19.41277527 9.1421759 19.41277527 9.1421759 20.53527832 9.6697998 C26.13663075 12.27787174 31.79895762 14.5559568 37.60449219 16.67675781 C39.921875 17.578125 39.921875 17.578125 40.921875 18.578125 C41.05327934 21.52708291 41.11184263 24.44071166 41.109375 27.390625 C41.10929443 28.27613037 41.10921387 29.16163574 41.10913086 30.07397461 C40.9206565 52.58178049 40.9206565 52.58178049 37.921875 61.578125 C34.24074792 60.94841483 31.01340111 59.92330707 27.5625 58.50390625 C26.02384277 57.87742187 26.02384277 57.87742187 24.45410156 57.23828125 C23.3709668 56.79355469 22.28783203 56.34882812 21.171875 55.890625 C12.26735995 52.27615093 3.3421959 48.8446774 -5.75 45.734375 C-8.56416322 44.75668449 -11.32451437 43.71320114 -14.078125 42.578125 C-14.078125 41.918125 -14.078125 41.258125 -14.078125 40.578125 C-4.09224263 37.24949754 8.47988061 38.44482294 18.921875 38.578125 C18.426875 34.123125 18.426875 34.123125 17.921875 29.578125 C14.46381757 28.16078422 11.00537743 26.74437953 7.546875 25.328125 C6.58136719 24.93238281 5.61585937 24.53664063 4.62109375 24.12890625 C2.6759767 23.33258316 0.72735449 22.54477029 -1.22460938 21.76538086 C-3.08471851 20.99144941 -4.92248112 20.16069139 -6.72851562 19.26782227 C-11.33022875 17.0243848 -11.33022875 17.0243848 -16.31982422 16.93603516 C-18.61014863 17.80343461 -20.68175995 18.83729919 -22.828125 20.015625 C-24.3874376 20.7876737 -25.94866409 21.55586818 -27.51171875 22.3203125 C-28.27726074 22.70541992 -29.04280273 23.09052734 -29.83154297 23.48730469 C-33.1231247 25.08552107 -36.4556113 26.37642438 -39.890625 27.640625 C-40.96957031 28.04410156 -42.04851563 28.44757812 -43.16015625 28.86328125 C-48.69794553 30.21992842 -52.17274681 28.17653824 -56.84960938 25.38867188 C-57.52314453 24.97681641 -58.19667969 24.56496094 -58.890625 24.140625 C-59.58349609 23.73263672 -60.27636719 23.32464844 -60.99023438 22.90429688 C-62.72467953 21.85679453 -64.40690414 20.72380471 -66.078125 19.578125 C-66.078125 18.918125 -66.078125 18.258125 -66.078125 17.578125 C-65.30436523 17.23144775 -64.53060547 16.88477051 -63.73339844 16.52758789 C-62.0388044 15.76828424 -60.34422521 15.00894725 -58.64990234 14.2490387 C-55.3806496 12.78301385 -52.1100665 11.32009229 -48.83691406 9.86279297 C-42.86309687 7.19927283 -36.90561076 4.521606 -31.015625 1.67578125 C-30.1277832 1.25353271 -29.23994141 0.83128418 -28.32519531 0.39624023 C-26.71193623 -0.37458467 -25.10635633 -1.16178944 -23.51074219 -1.96850586 C-15.13288171 -5.92947343 -8.03495618 -3.89854862 0 0 Z " fill="#09527D" transform="translate(67.078125,4.421875)"/>
<path d="M0 0 C0 -1.32 0 -2.64 0 -4 C6.15234375 -4.09765625 6.15234375 -4.09765625 8 -4 C9.61138369 -2.38861631 9.15162807 -0.63706044 9.17700195 1.59228516 C9.19625481 3.05983749 9.19625481 3.05983749 9.21589661 4.55703735 C9.22328354 5.62360565 9.23067047 6.69017395 9.23828125 7.7890625 C9.246353 8.88084808 9.25442474 9.97263367 9.26274109 11.09750366 C9.27660491 13.4160604 9.28731672 15.73463775 9.29516602 18.05322266 C9.31232658 21.58926613 9.35618703 25.12436228 9.40039062 28.66015625 C9.41052166 30.91145145 9.41903648 33.16275461 9.42578125 35.4140625 C9.44328934 36.46848541 9.46079742 37.52290833 9.47883606 38.60928345 C9.46013956 44.98263544 8.77651544 48.80908371 5 54 C-0.82380888 59.51729262 -7.04856623 61.98645412 -15 62 C-21.56745692 61.31975493 -28.11427024 58.46936049 -32.390625 53.328125 C-34.7829889 49.52055991 -35.43269155 46.43508844 -35 42 C-31.7 42 -28.4 42 -25 42 C-24.6596875 43.6396875 -24.6596875 43.6396875 -24.3125 45.3125 C-23.31292279 48.98332328 -23.31292279 48.98332328 -21 50.9375 C-16.61846814 52.48929254 -12.59381803 52.68000596 -8 52 C-4.81434537 50.20806927 -3.47430767 48.83568495 -1.6875 45.6875 C-0.84404627 42.39036267 -0.86710116 39.38892043 -1 36 C-1.78375 36.639375 -2.5675 37.27875 -3.375 37.9375 C-8.55615396 42.00840669 -13.59301514 41.46244641 -20 41 C-23.375 39.8125 -23.375 39.8125 -26 38 C-27.546875 36.948125 -27.546875 36.948125 -29.125 35.875 C-33.43616433 32.07436829 -35.55974322 27.15105132 -36.34765625 21.51171875 C-36.56118072 15.54231732 -35.2330813 10.50295034 -33 5 C-32.34 5 -31.68 5 -31 5 C-31 4.01 -31 3.02 -31 2 C-28.953125 0.4296875 -28.953125 0.4296875 -26.25 -1.125 C-25.36828125 -1.64320312 -24.4865625 -2.16140625 -23.578125 -2.6953125 C-15.42713376 -6.82020807 -7.31644624 -4.93064855 0 0 Z M-23 7 C-23.69357496 9.03855954 -23.69357496 9.03855954 -24 11 C-24.99 11.495 -24.99 11.495 -26 12 C-26.05449838 13.72880982 -26.09301688 15.45812712 -26.125 17.1875 C-26.14820313 18.15042969 -26.17140625 19.11335938 -26.1953125 20.10546875 C-25.91137256 24.31345861 -24.80668229 27.06320766 -22.0625 30.25 C-18.68638189 33.11458507 -15.41275512 33.35340542 -11.0625 33.2734375 C-7.52857725 32.80492501 -5.60429934 31.36203894 -3 29 C0.36655771 23.38907049 0.3495802 18.43486519 0 12 C-0.66 12 -1.32 12 -2 12 C-2 11.01 -2 10.02 -2 9 C-2.66 9 -3.32 9 -4 9 C-4.33 8.01 -4.66 7.02 -5 6 C-11.58368002 2.28919853 -16.65969499 2.66189657 -23 7 Z " fill="#454545" transform="translate(270,52)"/>
<path d="M0 0 C28.17948718 0 28.17948718 0 35.9375 6.4375 C41.38230093 13.20225267 41.9201875 18.43273703 41 27 C39.45914002 32.52383766 35.63586493 35.32676777 30.90234375 38.15234375 C29 39 29 39 26 39 C26 39.66 26 40.32 26 41 C26.66 41 27.32 41 28 41 C29.3994459 42.93298465 30.72108593 44.92274015 32 46.9375 C34.3760117 51.13499505 34.3760117 51.13499505 38 54 C38 54.99 38 55.98 38 57 C38.66 57 39.32 57 40 57 C40 57.99 40 58.98 40 60 C40.66 60 41.32 60 42 60 C42.33 60.99 42.66 61.98 43 63 C43.99 63.495 43.99 63.495 45 64 C45 64.66 45 65.32 45 66 C43.22992286 66.08114106 41.45877902 66.13925505 39.6875 66.1875 C38.70136719 66.22230469 37.71523438 66.25710937 36.69921875 66.29296875 C34 66 34 66 32.3359375 64.73046875 C31.89507812 64.15941406 31.45421875 63.58835938 31 63 C30.49339844 62.38382813 29.98679687 61.76765625 29.46484375 61.1328125 C26.74329113 57.55511929 24.35906675 54.34901361 23 50 C22.34 50 21.68 50 21 50 C21 49.01 21 48.02 21 47 C20.34 47 19.68 47 19 47 C19 46.01 19 45.02 19 44 C18.34 44 17.68 44 17 44 C17 43.01 17 42.02 17 41 C14.69 41 12.38 41 10 41 C10 49.25 10 57.5 10 66 C6.7 66 3.4 66 0 66 C0 44.22 0 22.44 0 0 Z M10 8 C9.67 15.92 9.34 23.84 9 32 C11.35125 32.0825 13.7025 32.165 16.125 32.25 C17.21772217 32.30462402 17.21772217 32.30462402 18.33251953 32.36035156 C23.38146827 32.44525387 26.17775887 31.22973567 30 28 C31.67967818 22.96096545 31.87064828 17.94859377 29.6875 13.0625 C26.85385691 9.59915844 24.30902202 8.55008792 20 8 C16.7 8 13.4 8 10 8 Z " fill="#C81B3C" transform="translate(399,26)"/>
<path d="M0 0 C2.68826864 0.11490912 5.37513469 0.24163199 8.0625 0.375 C8.81466797 0.4059375 9.56683594 0.436875 10.34179688 0.46875 C15.17461249 0.71980536 19.46041722 1.2644508 24 3 C24.33 3.99 24.66 4.98 25 6 C25.66 6.33 26.32 6.66 27 7 C27.37125 7.70125 27.7425 8.4025 28.125 9.125 C32.08407427 15.19558055 37.66959895 19.82877172 44.69921875 21.83203125 C49.97756593 22.21737748 54.49143272 19.2377988 58.4375 16 C61.69117206 14.73027432 62.66550709 15.33179219 65.875 16.5625 C70.07812402 18.45642265 74.06394043 20.60413765 78 23 C74.55788821 30.70297833 67.09618515 34.77652262 60.0625 38.875 C59.40685059 39.26840576 58.75120117 39.66181152 58.07568359 40.06713867 C52.72570423 43.07625444 47.10367211 45.11913852 40.96606445 43.4453125 C38.93488543 42.59850254 37.0472491 41.63322015 35.125 40.5625 C34.43809082 40.19777588 33.75118164 39.83305176 33.04345703 39.45727539 C24.05573168 34.568717 16.32110555 29.10398147 10 21 C9.34 20.34 8.68 19.68 8 19 C7.34 18.34 6.68 17.68 6 17 C6 16.01 6 15.02 6 14 C5.34 14 4.68 14 4 14 C3.12808053 12.61518672 2.27809616 11.21654754 1.4375 9.8125 C0.96183594 9.03519531 0.48617188 8.25789063 -0.00390625 7.45703125 C-1.19605797 4.51639033 -0.88855164 2.99553637 0 0 Z " fill="#09517D" transform="translate(7,73)"/>
<path d="M0 0 C12.87 0 25.74 0 39 0 C39 2.97 39 5.94 39 9 C29.43 9.33 19.86 9.66 10 10 C10 15.28 10 20.56 10 26 C18.91 26 27.82 26 37 26 C37 28.97 37 31.94 37 35 C23.635 35.495 23.635 35.495 10 36 C10 42.93 10 49.86 10 57 C19.57 57.33 29.14 57.66 39 58 C39 60.64 39 63.28 39 66 C26.13 66 13.26 66 0 66 C0 44.22 0 22.44 0 0 Z " fill="#C91C3D" transform="translate(350,26)"/>
<path d="M0 0 C1.6640625 1.29296875 1.6640625 1.29296875 4.1640625 3.79296875 C4.1640625 4.78296875 4.1640625 5.77296875 4.1640625 6.79296875 C4.8240625 7.12296875 5.4840625 7.45296875 6.1640625 7.79296875 C6.7890625 9.85546875 6.7890625 9.85546875 7.1640625 11.79296875 C1.4140625 15.79296875 1.4140625 15.79296875 -0.8359375 15.79296875 C-0.8359375 15.13296875 -0.8359375 14.47296875 -0.8359375 13.79296875 C-1.4959375 13.79296875 -2.1559375 13.79296875 -2.8359375 13.79296875 C-3.2690625 13.02984375 -3.7021875 12.26671875 -4.1484375 11.48046875 C-6.11686951 8.34555852 -7.44944118 7.25531944 -10.8359375 5.79296875 C-14.61441418 5.39523436 -16.89394108 5.2476024 -20.2109375 7.16796875 C-21.9281706 8.71391181 -21.9281706 8.71391181 -22.8359375 10.79296875 C-22.33174237 16.08608066 -22.33174237 16.08608066 -19.26367188 20.13085938 C-17.24397824 21.24282554 -15.21737351 22.16441986 -13.0859375 23.04296875 C-11.67276356 23.66932057 -10.26127327 24.29948593 -8.8515625 24.93359375 C-7.8301416 25.38798828 -7.8301416 25.38798828 -6.78808594 25.8515625 C-0.53050871 28.86922355 5.46895166 33.2168983 8.1640625 39.79296875 C8.95864885 45.95359279 8.46145455 51.43470667 5.1640625 56.79296875 C-1.43521147 62.86980019 -6.64399714 64.14735538 -15.53515625 64.078125 C-20.0642991 63.68684994 -23.13036377 62.33999795 -26.8359375 59.79296875 C-28.16625 58.92671875 -28.16625 58.92671875 -29.5234375 58.04296875 C-32.58494863 55.06420117 -35.20453225 51.77049013 -36.8359375 47.79296875 C-36.578125 45.625 -36.578125 45.625 -35.8359375 43.79296875 C-33.61654211 42.12842221 -32.16267228 41.80972438 -29.3984375 41.66796875 C-25.85445646 43.22386287 -24.90486565 45.57856031 -23.0078125 48.8515625 C-21.14969323 51.92984676 -19.4903723 53.38110524 -15.984375 54.25390625 C-11.81523852 54.9565697 -8.51809604 55.17554193 -4.8359375 52.79296875 C-2.547729 49.25664653 -2.69393675 45.99398044 -2.9609375 41.85546875 C-4.91197253 37.25660046 -9.10212507 35.11514961 -13.45703125 33.203125 C-14.72666339 32.7468792 -15.99888473 32.29778225 -17.2734375 31.85546875 C-24.23274492 29.24244097 -29.68676676 26.73311511 -33.3359375 20.04296875 C-34.2245034 14.2672904 -34.09488117 7.82668748 -30.8359375 2.79296875 C-28.8125 1.125 -28.8125 1.125 -26.4609375 -0.39453125 C-25.30464844 -1.15830078 -25.30464844 -1.15830078 -24.125 -1.9375 C-16.32086141 -6.26573386 -7.22066481 -4.74720303 0 0 Z " fill="#454545" transform="translate(154.8359375,29.20703125)"/>
<path d="M0 0 C1.703125 1.71875 1.703125 1.71875 2.09375 4.41796875 C2.04734375 5.40410156 2.0009375 6.39023437 1.953125 7.40625 C1.91703125 8.40011719 1.8809375 9.39398438 1.84375 10.41796875 C1.79734375 11.17722656 1.7509375 11.93648437 1.703125 12.71875 C-0.41247781 11.67789278 -2.49614725 10.60827264 -4.55859375 9.46484375 C-12.11060465 5.39089262 -18.04659071 3.64916933 -26.484375 5.84375 C-31.00673767 7.37472145 -33.97051949 9.30485882 -37.296875 12.71875 C-37.296875 13.37875 -37.296875 14.03875 -37.296875 14.71875 C-37.956875 14.71875 -38.616875 14.71875 -39.296875 14.71875 C-39.5134375 15.8634375 -39.5134375 15.8634375 -39.734375 17.03125 C-40.296875 19.71875 -40.296875 19.71875 -41.296875 22.71875 C-41.90982118 30.62676051 -42.44184333 38.24993018 -37.296875 44.71875 C-33.02552163 49.23302394 -28.82418627 52.24478314 -22.53515625 53.08984375 C-15.01381507 53.2605551 -9.57552643 51.9482021 -3.296875 47.71875 C-2.47896484 46.89310547 -2.47896484 46.89310547 -1.64453125 46.05078125 C-0.296875 44.71875 -0.296875 44.71875 1.703125 44.71875 C1.703125 48.67875 1.703125 52.63875 1.703125 56.71875 C-8.71033499 62.69117558 -18.27481901 64.50386268 -30.21875 62.140625 C-37.05665342 59.74518113 -42.46919978 55.03946439 -47.296875 49.71875 C-47.296875 49.05875 -47.296875 48.39875 -47.296875 47.71875 C-47.956875 47.71875 -48.616875 47.71875 -49.296875 47.71875 C-54.06534247 35.90402033 -55.15134119 25.81409197 -50.26953125 13.86328125 C-49.63755411 12.46988587 -48.98111849 11.08723698 -48.296875 9.71875 C-47.636875 9.71875 -46.976875 9.71875 -46.296875 9.71875 C-46.296875 8.72875 -46.296875 7.73875 -46.296875 6.71875 C-33.47424083 -6.82706961 -16.05428289 -8.95545032 0 0 Z " fill="#C91B3C" transform="translate(338.296875,30.28125)"/>
<path d="M0 0 C13.86 0 27.72 0 42 0 C42 2.97 42 5.94 42 9 C34.08 9.495 34.08 9.495 26 10 C26 28.48 26 46.96 26 66 C22.7 66 19.4 66 16 66 C16 47.19 16 28.38 16 9 C10.72 9 5.44 9 0 9 C0 6.03 0 3.06 0 0 Z " fill="#C81C3C" transform="translate(442,26)"/>
<path d="M0 0 C3.86423063 2.57615376 5.490952 4.49133476 6.92578125 8.9921875 C7.09074927 11.67229699 7.1595692 14.2421233 7.12109375 16.91796875 C7.11826385 17.66555954 7.11543396 18.41315033 7.11251831 19.18339539 C7.10137594 21.5573263 7.07628287 23.93087175 7.05078125 26.3046875 C7.04074374 27.9199164 7.03161924 29.53515126 7.0234375 31.15039062 C7.00145614 35.09780344 6.96696782 39.04493024 6.92578125 42.9921875 C3.95578125 42.9921875 0.98578125 42.9921875 -2.07421875 42.9921875 C-2.08880127 42.10958252 -2.10338379 41.22697754 -2.1184082 40.31762695 C-2.17963942 37.02780107 -2.25382205 33.7387882 -2.33666992 30.44946289 C-2.36982432 29.02867548 -2.39788567 27.60775937 -2.4206543 26.18676758 C-2.45437722 24.1382793 -2.5066962 22.0909603 -2.5625 20.04296875 C-2.58868408 18.81231689 -2.61486816 17.58166504 -2.6418457 16.3137207 C-3.10768065 12.73512983 -3.7849642 10.77378992 -6.07421875 7.9921875 C-10.31264309 7.58852804 -14.00520706 7.63585027 -18.07421875 8.9921875 C-18.21859375 9.7965625 -18.36296875 10.6009375 -18.51171875 11.4296875 C-19.07421875 13.9921875 -19.07421875 13.9921875 -20.07421875 14.9921875 C-20.16188987 17.06480826 -20.18117748 19.14039044 -20.171875 21.21484375 C-20.16865234 22.47490234 -20.16542969 23.73496094 -20.16210938 25.03320312 C-20.15375278 26.37369859 -20.14528782 27.71419338 -20.13671875 29.0546875 C-20.13170535 30.39908692 -20.12714217 31.7434881 -20.12304688 33.08789062 C-20.11121363 36.38936691 -20.09472846 39.69075553 -20.07421875 42.9921875 C-23.04421875 42.9921875 -26.01421875 42.9921875 -29.07421875 42.9921875 C-29.07421875 28.4721875 -29.07421875 13.9521875 -29.07421875 -1.0078125 C-26.43421875 -1.0078125 -23.79421875 -1.0078125 -21.07421875 -1.0078125 C-20.41421875 0.3121875 -19.75421875 1.6321875 -19.07421875 2.9921875 C-18.31109375 2.3528125 -17.54796875 1.7134375 -16.76171875 1.0546875 C-11.6166935 -2.89382025 -5.78189243 -2.80928107 0 0 Z " fill="#464646" transform="translate(221.07421875,49.0078125)"/>
<path d="M0 0 C0.99 0.66 1.98 1.32 3 2 C3.99 1.34 4.98 0.68 6 0 C8.00537109 -0.25878906 8.00537109 -0.25878906 10.2734375 -0.265625 C11.0984375 -0.26820313 11.9234375 -0.27078125 12.7734375 -0.2734375 C13.63195312 -0.26570312 14.49046875 -0.25796875 15.375 -0.25 C16.65117187 -0.26160156 16.65117187 -0.26160156 17.953125 -0.2734375 C22.40655452 -0.25956389 25.95526588 -0.09726955 30 2 C30.66 1.34 31.32 0.68 32 0 C34.12890625 -0.046875 34.12890625 -0.046875 36.5625 0.25 C37.77099609 0.38148438 37.77099609 0.38148438 39.00390625 0.515625 C39.66261719 0.67546875 40.32132812 0.8353125 41 1 C42.54163175 4.0832635 42.29747535 6.60878099 42 10 C39.78774156 12.63769276 38.40614032 12.94923246 35 13.375 C31.73156457 12.96644557 30.38776858 12.20409407 28 10 C27.67 10.66 27.34 11.32 27 12 C24.35139573 12.59355614 21.70802678 12.74209269 19 13 C19 14.65 19 16.3 19 18 C17.35 18 15.7 18 14 18 C14 15.69 14 13.38 14 11 C13.34 11 12.68 11 12 11 C12 11.66 12 12.32 12 13 C8.14993652 13.08953636 4.76352508 12.75270502 1 12 C0.67 12.33 0.34 12.66 0 13 C-4.03160191 13.26293056 -5.55892734 13.29404844 -9 11 C-9.9375 7.625 -9.9375 7.625 -10 4 C-7.31638735 -0.18643574 -4.79400565 -0.61200072 0 0 Z M-3 2 C-3.99 2.99 -4.98 3.98 -6 5 C-4.02 5 -2.04 5 0 5 C-0.99 4.01 -1.98 3.02 -3 2 Z M7 3 C10.09327895 5.97675459 10.09327895 5.97675459 14 7 C14 5.68 14 4.36 14 3 C11.69 3 9.38 3 7 3 Z M19 3 C17.66667905 5.6666419 18.32897967 7.16680303 19 10 C20.65 9.67 22.3 9.34 24 9 C24.38218767 7.34385343 24.71395102 5.67542976 25 4 C23.93354885 2.70366379 23.93354885 2.70366379 21.4375 2.9375 C20.633125 2.958125 19.82875 2.97875 19 3 Z M33 3 C32.34 4.32 31.68 5.64 31 7 C31.99 8.485 31.99 8.485 33 10 C34.65 9.67 36.3 9.34 38 9 C38 7.02 38 5.04 38 3 C36.35 3 34.7 3 33 3 Z M-1.25 6.4375 C-2.14203125 6.53933594 -3.0340625 6.64117187 -3.953125 6.74609375 C-4.96632813 6.87177734 -4.96632813 6.87177734 -6 7 C-5.67 7.99 -5.34 8.98 -5 10 C-3.89591797 9.87431641 -3.89591797 9.87431641 -2.76953125 9.74609375 C-1.30580078 9.59333984 -1.30580078 9.59333984 0.1875 9.4375 C1.15042969 9.33308594 2.11335938 9.22867188 3.10546875 9.12109375 C5.94233377 9.00241249 8.25423671 9.32234361 11 10 C7.36623577 5.82117114 4.05939481 5.80875588 -1.25 6.4375 Z M14 8 C15 10 15 10 15 10 Z " fill="#474747" transform="translate(342,134)"/>
<path d="M0 0 C2.97 0 5.94 0 9 0 C10 1 10 1 10.12025452 2.75270081 C10.1169236 3.89520546 10.1169236 3.89520546 10.11352539 5.06079102 C10.11344986 5.92160782 10.11337433 6.78242462 10.11329651 7.66932678 C10.10813522 8.60473801 10.10297394 9.54014923 10.09765625 10.50390625 C10.0962413 11.45692123 10.09482635 12.40993622 10.09336853 13.39183044 C10.08775152 16.44875165 10.07519616 19.50560077 10.0625 22.5625 C10.05748719 24.62955624 10.05292391 26.69661362 10.04882812 28.76367188 C10.03777656 33.84247588 10.02050055 38.9212257 10 44 C6.7 44 3.4 44 0 44 C0 29.48 0 14.96 0 0 Z " fill="#454545" transform="translate(171,48)"/>
<path d="M0 0 C1.32 0 2.64 0 4 0 C4.33 2.97 4.66 5.94 5 9 C6.423125 8.9690625 6.423125 8.9690625 7.875 8.9375 C11 9 11 9 13 10 C13 10.66 13 11.32 13 12 C13.515625 11.505 14.03125 11.01 14.5625 10.5 C17.86721204 8.46633105 20.18453778 8.6531398 24 9 C24.99 9.66 25.98 10.32 27 11 C27.1875 13.625 27.1875 13.625 27 16 C23.04 16.495 23.04 16.495 19 17 C19 17.66 19 18.32 19 19 C20.32 19 21.64 19 23 19 C23 18.34 23 17.68 23 17 C24.32 17.33 25.64 17.66 27 18 C27 18.66 27 19.32 27 20 C23.4913604 22.33909307 22.12910567 22.41291057 18 22 C15.125 20.5 15.125 20.5 13 19 C13 19.66 13 20.32 13 21 C11.58366664 21.16947579 10.16691467 21.33545507 8.75 21.5 C7.96109375 21.5928125 7.1721875 21.685625 6.359375 21.78125 C4 22 4 22 0 22 C-0.33 19.69 -0.66 17.38 -1 15 C-2.65 18.96 -4.3 22.92 -6 27 C-7.65 27 -9.3 27 -11 27 C-10.608125 25.824375 -10.21625 24.64875 -9.8125 23.4375 C-8.57723277 18.63273642 -9.79257353 16.32995191 -12 12 C-12 11.01 -12 10.02 -12 9 C-9.525 9.495 -9.525 9.495 -7 10 C-6.67 10.99 -6.34 11.98 -6 13 C-5.34 11.68 -4.68 10.36 -4 9 C-2.68 9 -1.36 9 0 9 C0 6.03 0 3.06 0 0 Z M5 12 C3.66667905 14.6666419 4.32897967 16.16680303 5 19 C6.32 19 7.64 19 9 19 C9.33 16.69 9.66 14.38 10 12 C8.35 12 6.7 12 5 12 Z M18 12 C18 12.66 18 13.32 18 14 C19.98 14 21.96 14 24 14 C23.02149805 12.97895449 22.02019573 11.9793879 21 11 C19.7763932 10.9254644 19.7763932 10.9254644 18 12 Z " fill="#454545" transform="translate(148,125)"/>
<path d="M0 0 C8.75 -0.125 8.75 -0.125 11 1 C11 1.99 11 2.98 11 4 C11.66 4 12.32 4 13 4 C13 3.34 13 2.68 13 2 C16.38122173 -0.25414782 17.6064728 -0.24544447 21.5625 -0.1875 C23.01849609 -0.17783203 23.01849609 -0.17783203 24.50390625 -0.16796875 C27 0 27 0 29 1 C29.33 1.99 29.66 2.98 30 4 C30.66 2.68 31.32 1.36 32 0 C33.32 0 34.64 0 36 0 C35.506626 4.81039649 33.96869943 8.62545231 31.9375 12.94921875 C30.89971945 15.12280288 30.89971945 15.12280288 30 18 C28.35 18 26.7 18 25 18 C25.391875 16.80375 25.78375 15.6075 26.1875 14.375 C27.09943191 10.84047769 27.04194306 10.10676415 25.625 6.5 C25.08875 5.675 24.5525 4.85 24 4 C21.69 4 19.38 4 17 4 C16.67 4.66 16.34 5.32 16 6 C16.33 6.99 16.66 7.98 17 9 C19.31 9 21.62 9 24 9 C24 9.99 24 10.98 24 12 C21.22899606 13.38550197 19.0665294 13.1877467 16 13 C15.01 12.34 14.02 11.68 13 11 C12.67 11.66 12.34 12.32 12 13 C10.35 13 8.7 13 7 13 C7 10.03 7 7.06 7 4 C6.01 4.33 5.02 4.66 4 5 C4 7.64 4 10.28 4 13 C2.68 13 1.36 13 0 13 C0 8.71 0 4.42 0 0 Z " fill="#474747" transform="translate(275,134)"/>
<path d="M0 0 C1.33804688 0.04060547 1.33804688 0.04060547 2.703125 0.08203125 C3.37859375 0.11683594 4.0540625 0.15164062 4.75 0.1875 C4.75 2.4975 4.75 4.8075 4.75 7.1875 C5.41 7.1875 6.07 7.1875 6.75 7.1875 C6.75 6.5275 6.75 5.8675 6.75 5.1875 C8.07 4.5275 9.39 3.8675 10.75 3.1875 C9.1 3.1875 7.45 3.1875 5.75 3.1875 C5.75 2.5275 5.75 1.8675 5.75 1.1875 C8.73594424 -0.30547212 11.45853624 0.06994772 14.75 0.1875 C15.41 0.5175 16.07 0.8475 16.75 1.1875 C16.75 5.1475 16.75 9.1075 16.75 13.1875 C9.9140625 13.3828125 9.9140625 13.3828125 7.75 13.1875 C7.09 12.5275 6.43 11.8675 5.75 11.1875 C5.46125 12.156875 5.1725 13.12625 4.875 14.125 C3.75 17.1875 3.75 17.1875 1.75 18.1875 C-5.57364597 18.65249339 -5.57364597 18.65249339 -8.25 16.8125 C-9.25 15.1875 -9.25 15.1875 -9.25 13.1875 C-8.26 12.8575 -7.27 12.5275 -6.25 12.1875 C-6.745 11.81625 -7.24 11.445 -7.75 11.0625 C-9.25 9.1875 -9.25 9.1875 -9.6875 6.1875 C-9.25 3.1875 -9.25 3.1875 -7.55078125 1.51171875 C-4.79478074 -0.07450226 -3.15261923 -0.1244455 0 0 Z M-4.25 3.1875 C-4.91 4.5075 -5.57 5.8275 -6.25 7.1875 C-5.26 8.6725 -5.26 8.6725 -4.25 10.1875 C-2.6 9.8575 -0.95 9.5275 0.75 9.1875 C1.4314823 7.29570797 1.4314823 7.29570797 1.75 5.1875 C1.09 4.5275 0.43 3.8675 -0.25 3.1875 C-1.57 3.1875 -2.89 3.1875 -4.25 3.1875 Z M8.75 7.1875 C8.75 8.1775 8.75 9.1675 8.75 10.1875 C10.07 10.1875 11.39 10.1875 12.75 10.1875 C12.75 9.1975 12.75 8.2075 12.75 7.1875 C11.43 7.1875 10.11 7.1875 8.75 7.1875 Z M-0.25 12.1875 C-1.9 12.5175 -3.55 12.8475 -5.25 13.1875 C-4.92 13.8475 -4.59 14.5075 -4.25 15.1875 C-2.6 14.8575 -0.95 14.5275 0.75 14.1875 C0.42 13.5275 0.09 12.8675 -0.25 12.1875 Z " fill="#464646" transform="translate(44.25,133.8125)"/>
<path d="M0 0 C1.5675 -0.04125 3.135 -0.0825 4.75 -0.125 C5.63171875 -0.14820313 6.5134375 -0.17140625 7.421875 -0.1953125 C10.1135858 0.00860498 11.69904974 0.63448279 14 2 C14.99 1.34 15.98 0.68 17 0 C23.01987353 -0.53748871 23.01987353 -0.53748871 25.9375 1.0625 C27.55479605 4.01168691 27.18630138 6.70867559 27 10 C26.34 10 25.68 10 25 10 C25 10.66 25 11.32 25 12 C22.2201184 13.3899408 20.0813674 13.18488204 17 13 C14.625 12 14.625 12 13 11 C12.01 11.66 11.02 12.32 10 13 C6.8125 13.125 6.8125 13.125 4 13 C4 14.65 4 16.3 4 18 C2.68 18 1.36 18 0 18 C0 12.06 0 6.12 0 0 Z M4 3 C2.66667905 5.6666419 3.32897967 7.16680303 4 10 C5.65 10 7.3 10 9 10 C9.38133299 8.0085944 9.71325582 6.00720923 10 4 C8.93354885 2.70366379 8.93354885 2.70366379 6.4375 2.9375 C5.633125 2.958125 4.82875 2.97875 4 3 Z M18 3 C16.99782936 6.58327753 16.99782936 6.58327753 18 10 C19.65 9.67 21.3 9.34 23 9 C23.38218767 7.34385343 23.71395102 5.67542976 24 4 C22.93354885 2.70366379 22.93354885 2.70366379 20.4375 2.9375 C19.633125 2.958125 18.82875 2.97875 18 3 Z " fill="#454545" transform="translate(63,134)"/>
<path d="M0 0 C7 0 14 0 21 0 C21.08074203 2.62561109 21.1403623 5.24875676 21.1875 7.875 C21.21263672 8.62136719 21.23777344 9.36773437 21.26367188 10.13671875 C21.29296875 12.3046875 21.29296875 12.3046875 21 16 C16.94641576 18.70238949 14.81689896 18.22937614 10 18 C9.34 17.67 8.68 17.34 8 17 C8 15.68 8 14.36 8 13 C8.66 12.67 9.32 12.34 10 12 C9.34 11.67 8.68 11.34 8 11 C7.42577504 8.30114269 7 5.76207303 7 3 C6.01 3 5.02 3 4 3 C4 6.3 4 9.6 4 13 C2.68 13 1.36 13 0 13 C0 8.71 0 4.42 0 0 Z M12 3 C10.66667905 5.6666419 11.32897967 7.16680303 12 10 C13.65 9.67 15.3 9.34 17 9 C17 7.02 17 5.04 17 3 C15.35 3 13.7 3 12 3 Z M11 13 C11.33 13.66 11.66 14.32 12 15 C13.65 14.67 15.3 14.34 17 14 C17 13.67 17 13.34 17 13 C15.02 13 13.04 13 11 13 Z " fill="#464646" transform="translate(239,134)"/>
<path d="M0 0 C0.639375 0.66 1.27875 1.32 1.9375 2 C3.97191738 4.40420586 3.97191738 4.40420586 7.75 4.25 C8.8225 4.1675 9.895 4.085 11 4 C8.53721199 2.768606 6.7204945 2.92840804 4 3 C4 2.34 4 1.68 4 1 C6.98594424 -0.49297212 9.70853624 -0.11755228 13 0 C13.66 0.33 14.32 0.66 15 1 C15 4.96 15 8.92 15 13 C10.11113324 13.07296816 5.78414483 13.04653168 1 12 C0.67 12.33 0.34 12.66 0 13 C-4.03160191 13.26293056 -5.55892734 13.29404844 -9 11 C-9.9375 7.625 -9.9375 7.625 -10 4 C-7.34473796 -0.14220879 -4.76467822 -0.79411304 0 0 Z M-3 2 C-3.99 2.99 -4.98 3.98 -6 5 C-4.02 5 -2.04 5 0 5 C-0.99 4.01 -1.98 3.02 -3 2 Z M-6 7 C-5.67 7.99 -5.34 8.98 -5 10 C-1.62537285 9.45276317 0.08235 8.9451 3 7 C0.03 7 -2.94 7 -6 7 Z M7 7 C7 7.99 7 8.98 7 10 C8.65 9.67 10.3 9.34 12 9 C11.67 8.34 11.34 7.68 11 7 C9.68 7 8.36 7 7 7 Z " fill="#454545" transform="translate(447,134)"/>
<path d="M0 0 C0.33 1.32 0.66 2.64 1 4 C-0.32 4 -1.64 4 -3 4 C-2.01 4.66 -1.02 5.32 0 6 C0.268125 5.38125 0.53625 4.7625 0.8125 4.125 C2 2 2 2 5 0 C11.33333333 -0.33333333 11.33333333 -0.33333333 14 1 C14.625 4.0625 14.625 4.0625 15 7 C10.545 7.495 10.545 7.495 6 8 C6 8.66 6 9.32 6 10 C6.763125 9.67 7.52625 9.34 8.3125 9 C11 8 11 8 14 8 C13.625 9.9375 13.625 9.9375 13 12 C8.84105982 14.07947009 4.37557524 12.87511505 0 12 C-0.33 12.33 -0.66 12.66 -1 13 C-4.72224599 13.29386153 -5.77786243 13.14809171 -9 11 C-8.67 10.01 -8.34 9.02 -8 8 C-6.02 8.66 -4.04 9.32 -2 10 C-2 9.34 -2 8.68 -2 8 C-3.98 7.34 -5.96 6.68 -8 6 C-8 4.35 -8 2.7 -8 1 C-5.29120665 -0.35439668 -2.99066732 -0.06501451 0 0 Z M8 2 C7.01 2.99 6.02 3.98 5 5 C6.98 5 8.96 5 11 5 C11 4.34 11 3.68 11 3 C10.01 2.67 9.02 2.34 8 2 Z " fill="#454545" transform="translate(406,134)"/>
<path d="M0 0 C6.29675193 0 7.98289872 0.06316023 13 3 C13.36923077 9.52307692 13.36923077 9.52307692 11.5 11.9375 C11.005 12.288125 10.51 12.63875 10 13 C10.66 13.78375 11.32 14.5675 12 15.375 C14 18 14 18 14 20 C12.35 20 10.7 20 9 20 C9 19.01 9 18.02 9 17 C8.34 17 7.68 17 7 17 C6.34 16.01 5.68 15.02 5 14 C5 15.65 5 17.3 5 19 C3.35 19.33 1.7 19.66 0 20 C0 13.4 0 6.8 0 0 Z M4 4 C4 5.98 4 7.96 4 10 C5.65 9.67 7.3 9.34 9 9 C8.67 7.35 8.34 5.7 8 4 C6.68 4 5.36 4 4 4 Z " fill="#404040" transform="translate(319,127)"/>
<path d="M0 0 C3.66666667 0 7.33333333 0 11 0 C11.94875 -0.0825 12.8975 -0.165 13.875 -0.25 C17 0 17 0 19.375 1.8125 C21 4 21 4 21 7 C16.545 7.495 16.545 7.495 12 8 C12 8.66 12 9.32 12 10 C12.763125 9.67 13.52625 9.34 14.3125 9 C17 8 17 8 20 8 C20 8.99 20 9.98 20 11 C16.50875983 13.32749345 15.10777749 13.50299316 11 13 C8.625 11.375 8.625 11.375 7 9 C6.75 5.75 6.75 5.75 7 3 C6.01 3 5.02 3 4 3 C4 6.3 4 9.6 4 13 C2.68 13 1.36 13 0 13 C0 8.71 0 4.42 0 0 Z M14 2 C13.01 2.99 12.02 3.98 11 5 C12.98 5 14.96 5 17 5 C17 4.34 17 3.68 17 3 C16.01 2.67 15.02 2.34 14 2 Z " fill="#454545" transform="translate(91,134)"/>
<path d="M0 0 C1.51400391 0.01740234 1.51400391 0.01740234 3.05859375 0.03515625 C4.07050781 0.04417969 5.08242187 0.05320312 6.125 0.0625 C7.29869141 0.07990234 7.29869141 0.07990234 8.49609375 0.09765625 C8.82609375 1.41765625 9.15609375 2.73765625 9.49609375 4.09765625 C6.85609375 4.09765625 4.21609375 4.09765625 1.49609375 4.09765625 C1.49609375 5.08765625 1.49609375 6.07765625 1.49609375 7.09765625 C3.80609375 7.42765625 6.11609375 7.75765625 8.49609375 8.09765625 C8.49609375 9.08765625 8.49609375 10.07765625 8.49609375 11.09765625 C6.18609375 11.42765625 3.87609375 11.75765625 1.49609375 12.09765625 C1.49609375 13.74765625 1.49609375 15.39765625 1.49609375 17.09765625 C4.13609375 17.09765625 6.77609375 17.09765625 9.49609375 17.09765625 C9.49609375 18.08765625 9.49609375 19.07765625 9.49609375 20.09765625 C5.20609375 20.09765625 0.91609375 20.09765625 -3.50390625 20.09765625 C-3.53074322 16.95176681 -3.55066527 13.80610354 -3.56640625 10.66015625 C-3.57478516 9.76232422 -3.58316406 8.86449219 -3.59179688 7.93945312 C-3.59501953 7.08544922 -3.59824219 6.23144531 -3.6015625 5.3515625 C-3.60941772 4.16542358 -3.60941772 4.16542358 -3.61743164 2.95532227 C-3.4390318 0.03608708 -2.92971854 0.11426359 0 0 Z " fill="#454545" transform="translate(195.50390625,126.90234375)"/>
<path d="M0 0 C2.62506802 -0.02690844 5.24986173 -0.04679404 7.875 -0.0625 C8.62136719 -0.07087891 9.36773437 -0.07925781 10.13671875 -0.08789062 C15.7734375 -0.11328125 15.7734375 -0.11328125 18 1 C18 4.96 18 8.92 18 13 C16.68 13 15.36 13 14 13 C14 10.03 14 7.06 14 4 C13.01 3.67 12.02 3.34 11 3 C11 6.3 11 9.6 11 13 C9.68 13 8.36 13 7 13 C7 10.03 7 7.06 7 4 C6.01 4.495 6.01 4.495 5 5 C4.53476937 6.89533342 4.53476937 6.89533342 4.375 9.0625 C4.189375 11.0115625 4.189375 11.0115625 4 13 C2.68 13 1.36 13 0 13 C0 8.71 0 4.42 0 0 Z " fill="#464646" transform="translate(206,134)"/>
<path d="M0 0 C2.43816585 -0.0809723 4.87364384 -0.14046972 7.3125 -0.1875 C8.34793945 -0.22520508 8.34793945 -0.22520508 9.40429688 -0.26367188 C12.29165421 -0.30551763 14.45772814 -0.32708461 16.96875 1.1875 C18.36082671 3.63418028 18.29647376 5.39050672 18.1875 8.1875 C18.16042969 9.08855469 18.13335937 9.98960937 18.10546875 10.91796875 C18.07066406 11.60503906 18.03585937 12.29210937 18 13 C16.68 13 15.36 13 14 13 C13.67 10.03 13.34 7.06 13 4 C12.34 4 11.68 4 11 4 C11 6.97 11 9.94 11 13 C9.68 13 8.36 13 7 13 C7 9.7 7 6.4 7 3 C6.01 3.33 5.02 3.66 4 4 C4 6.97 4 9.94 4 13 C2.68 13 1.36 13 0 13 C0 8.71 0 4.42 0 0 Z " fill="#454545" transform="translate(464,134)"/>
<path d="M0 0 C0.66 0.33 1.32 0.66 2 1 C2 2.32 2 3.64 2 5 C1.37351563 4.9278125 0.74703125 4.855625 0.1015625 4.78125 C-0.71570313 4.6884375 -1.53296875 4.595625 -2.375 4.5 C-3.18710938 4.4071875 -3.99921875 4.314375 -4.8359375 4.21875 C-6.96912825 3.96647649 -6.96912825 3.96647649 -9 4 C-9.33 6.97 -9.66 9.94 -10 13 C-7.17941514 15.34111027 -7.17941514 15.34111027 -4 14.6875 C-0.97290882 14.04448305 -0.97290882 14.04448305 2 13 C2 14.32 2 15.64 2 17 C-1.68497796 19.45665197 -4.71971786 19.70086491 -9 19 C-11.8100346 17.20636089 -13.50940468 15.98119065 -15 13 C-15.37510464 9.74909308 -15.66540869 7.15611549 -13.98828125 4.2421875 C-9.59361926 -1.22144632 -6.60643688 -1.20117034 0 0 Z " fill="#464646" transform="translate(134,128)"/>
<path d="M0 0 C0.99 0.66 1.98 1.32 3 2 C3 2.99 3 3.98 3 5 C0.23723823 4.47731534 -2.3260876 3.89130413 -5 3 C-5 4.32 -5 5.64 -5 7 C-4.236875 7.12375 -3.47375 7.2475 -2.6875 7.375 C-0 8 -0 8 3 10 C3.375 13.5 3.375 13.5 3 17 C-0.48868651 19.32579101 -1.89718519 19.41865457 -6 19 C-8.375 17.6875 -8.375 17.6875 -10 16 C-10 15.01 -10 14.02 -10 13 C-6.85262818 13.69941596 -3.97411124 14.76078698 -1 16 C-1 14.35 -1 12.7 -1 11 C-1.928125 10.71125 -2.85625 10.4225 -3.8125 10.125 C-7 9 -7 9 -10 7 C-9.75 4.125 -9.75 4.125 -9 1 C-5.96164275 -1.49579346 -3.62959226 -1.11679762 0 0 Z " fill="#474747" transform="translate(12,128)"/>
<path d="M0 0 C3.96 0 7.92 0 12 0 C12.33 1.32 12.66 2.64 13 4 C11.35 4 9.7 4 8 4 C8 9.28 8 14.56 8 20 C6.68 20 5.36 20 4 20 C4 14.72 4 9.44 4 4 C2.35 4 0.7 4 -1 4 C-0.67 2.68 -0.34 1.36 0 0 Z " fill="#444444" transform="translate(428,127)"/>
<path d="M0 0 C0.99 0.66 1.98 1.32 3 2 C3.1875 4.625 3.1875 4.625 3 7 C0.36 7.33 -2.28 7.66 -5 8 C-5 8.66 -5 9.32 -5 10 C-3.68 10 -2.36 10 -1 10 C-1 9.34 -1 8.68 -1 8 C0.32 8.33 1.64 8.66 3 9 C3 9.66 3 10.32 3 11 C-0.3012008 13.20080053 -0.89101158 13.21218749 -4.625 12.75 C-5.42164063 12.66234375 -6.21828125 12.5746875 -7.0390625 12.484375 C-7.68617188 12.32453125 -8.33328125 12.1646875 -9 12 C-10.52491998 8.95016004 -10.23562548 6.3576631 -10 3 C-7.77361 -1.05988764 -4.20558658 -0.3754988 0 0 Z M-5.5625 3.5 C-6.036875 3.995 -6.51125 4.49 -7 5 C-4.69 5 -2.38 5 0 5 C-0.97850195 3.97895449 -1.97980427 2.9793879 -3 2 C-4.24076302 1.88457803 -4.24076302 1.88457803 -5.5625 3.5 Z " fill="#444444" transform="translate(271,134)"/>
<path d="M0 0 C0.99 0.66 1.98 1.32 3 2 C3.1875 4.625 3.1875 4.625 3 7 C-1.455 7.495 -1.455 7.495 -6 8 C-3.525 8.99 -3.525 8.99 -1 10 C-1 9.34 -1 8.68 -1 8 C0.32 8.33 1.64 8.66 3 9 C3 9.66 3 10.32 3 11 C-0.48868651 13.32579101 -1.89718519 13.41865457 -6 13 C-8.375 11.9375 -8.375 11.9375 -10 10 C-10.43060657 6.55514741 -10.63335287 4.15493758 -8.9375 1.0625 C-5.91362524 -0.5957539 -3.37613017 -0.30144019 0 0 Z M-6 3 C-6 3.66 -6 4.32 -6 5 C-4.02 5 -2.04 5 0 5 C-0.97850195 3.97895449 -1.97980427 2.9793879 -3 2 C-4.2236068 1.9254644 -4.2236068 1.9254644 -6 3 Z " fill="#454545" transform="translate(235,134)"/>
<path d="M0 0 C1.9375 1.0625 1.9375 1.0625 3 3 C2.8125 6.625 2.8125 6.625 2 10 C-0.77100394 11.38550197 -2.9334706 11.1877467 -6 11 C-6.99 10.34 -7.98 9.68 -9 9 C-9.375 5.5 -9.375 5.5 -9 2 C-5.53076119 -0.31282587 -4.07794425 -0.42478586 0 0 Z " fill="#464646" transform="translate(179,26)"/>
<path d="M0 0 C8.75 -0.125 8.75 -0.125 11 1 C11 4.96 11 8.92 11 13 C9.68 13 8.36 13 7 13 C7 10.03 7 7.06 7 4 C6.01 3.67 5.02 3.34 4 3 C4 6.3 4 9.6 4 13 C2.68 13 1.36 13 0 13 C0 8.71 0 4.42 0 0 Z " fill="#474747" transform="translate(23,134)"/>
<path d="M0 0 C8.75 -0.125 8.75 -0.125 11 1 C11 4.96 11 8.92 11 13 C9.68 13 8.36 13 7 13 C7 10.03 7 7.06 7 4 C6.01 4.33 5.02 4.66 4 5 C4 7.64 4 10.28 4 13 C2.68 13 1.36 13 0 13 C0 8.71 0 4.42 0 0 Z " fill="#464646" transform="translate(385,134)"/>
<path d="M0 0 C1.98 0 3.96 0 6 0 C6 0.66 6 1.32 6 2 C6.99 2.33 7.98 2.66 9 3 C7.02 3.99 7.02 3.99 5 5 C5 6.65 5 8.3 5 10 C5.99 10.33 6.98 10.66 8 11 C8.66 11.66 9.32 12.32 10 13 C8.35 13 6.7 13 5 13 C5 14.65 5 16.3 5 18 C3.35 18 1.7 18 0 18 C0 12.06 0 6.12 0 0 Z " fill="#3F3F3F" transform="translate(356,134)"/>
<path d="M0 0 C6 2 12 4 18 6 C18 6.66 18 7.32 18 8 C12.06 8 6.12 8 0 8 C0 5.36 0 2.72 0 0 Z " fill="#06364F" transform="translate(86,34)"/>
<path d="M0 0 C2.97 0 5.94 0 9 0 C9 0.66 9 1.32 9 2 C7.35 2.33 5.7 2.66 4 3 C4 6.3 4 9.6 4 13 C2.68 13 1.36 13 0 13 C0 8.71 0 4.42 0 0 Z " fill="#464646" transform="translate(176,134)"/>
<path d="M0 0 C1.32 0 2.64 0 4 0 C4 4.29 4 8.58 4 13 C2.68 13 1.36 13 0 13 C0 8.71 0 4.42 0 0 Z " fill="#464646" transform="translate(17,134)"/>
<path d="M0 0 C0.33 0.99 0.66 1.98 1 3 C1.515625 3.515625 2.03125 4.03125 2.5625 4.5625 C3.036875 5.036875 3.51125 5.51125 4 6 C4 6.66 4 7.32 4 8 C2.35 8 0.7 8 -1 8 C-1 7.01 -1 6.02 -1 5 C-1.66 5 -2.32 5 -3 5 C-3.33 3.35 -3.66 1.7 -4 0 C-4.99 -0.33 -5.98 -0.66 -7 -1 C-3.51418144 -2.2020064 -3.32007656 -2.21338437 0 0 Z " fill="#494949" transform="translate(329,139)"/>
<path d="M0 0 C2.46800047 1.15173355 4.04783565 2.04783565 6 4 C4.1875 4.625 4.1875 4.625 2 5 C1.01 4.34 0.02 3.68 -1 3 C-0.67 2.01 -0.34 1.02 0 0 Z " fill="#515151" transform="translate(398,142)"/>
<path d="M0 0 C0.99 0.33 1.98 0.66 3 1 C3 1.99 3 2.98 3 4 C1.35 4 -0.3 4 -2 4 C-2 3.01 -2 2.02 -2 1 C-1.34 0.67 -0.68 0.34 0 0 Z " fill="#4C4C4C" transform="translate(18,127)"/>
</svg>
